<svg id="Layer_1" data-name="Layer 1" xmlns="http://www.w3.org/2000/svg" viewBox="0 0 1919 1080"><defs><style>.cls-1{fill:#ffe6fa;}.cls-2{fill:#e1eff7;}.cls-3{fill:#e3fdf5;}</style></defs><title>bg</title><path class="cls-1" d="M1919-1V471.54a2890,2890,0,0,1-351.18-14.62C1099.59,408.26,929.41,269,458.64,206.36A3126.2,3126.2,0,0,0,0,180.44V-1Z" transform="translate(0 1)"/><path class="cls-2" d="M1919,881.94V1079H0V590.84a3126.21,3126.21,0,0,1,458.64,25.92c470.77,62.64,640.95,201.9,1109.18,250.56A2890,2890,0,0,0,1919,881.94Z" transform="translate(0 1)"/><path class="cls-3" d="M1919,471.54v410.4a2890,2890,0,0,1-351.18-14.62C1099.59,818.66,929.41,679.4,458.64,616.76A3126.2,3126.2,0,0,0,0,590.84V180.44a3126.21,3126.21,0,0,1,458.64,25.92C929.41,269,1099.59,408.26,1567.82,456.92A2890,2890,0,0,0,1919,471.54Z" transform="translate(0 1)"/></svg>