<svg id="Layer_1" data-name="Layer 1" xmlns="http://www.w3.org/2000/svg" viewBox="0 0 215.11 204.58"><defs><style>.cls-1{fill:#fff;}</style></defs><title>star</title><polygon points="107.56 169.07 41.75 203.67 54.31 130.39 1.07 78.49 74.65 67.8 107.56 1.13 140.46 67.8 214.04 78.49 160.8 130.39 173.36 203.67 107.56 169.07"/><path class="cls-1" d="M610.5,290.67l32.34,65.53.23.47.52.08,72.31,10.51-52.33,51-.38.37.09.52,12.35,72-64.68-34-.47-.24-.47.24-64.68,34,12.35-72,.09-.52-.38-.37-52.33-51,72.31-10.51.52-.08.23-.47,32.34-65.53m0-2.26-33.24,67.34-74.32,10.8L556.72,419,544,493,610.5,458,677,493l-12.7-74,53.78-52.42-74.32-10.8L610.5,288.41Z" transform="translate(-502.94 -288.41)"/></svg>